<?xml version="1.0" encoding="UTF-8" standalone="no"?>
<svg
   xmlns:osb="http://www.openswatchbook.org/uri/2009/osb"
   xmlns:dc="http://purl.org/dc/elements/1.1/"
   xmlns:cc="http://creativecommons.org/ns#"
   xmlns:rdf="http://www.w3.org/1999/02/22-rdf-syntax-ns#"
   xmlns:svg="http://www.w3.org/2000/svg"
   xmlns="http://www.w3.org/2000/svg"
   xmlns:xlink="http://www.w3.org/1999/xlink"
   viewBox="0 0 1000 1000"
   height="1000"
   width="1000"
   version="1.1"
   id="svg3390">
  <metadata
     id="metadata3396">
    <rdf:RDF>
      <cc:Work
         rdf:about="">
        <dc:format>image/svg+xml</dc:format>
        <dc:type
           rdf:resource="http://purl.org/dc/dcmitype/StillImage" />
        <dc:title></dc:title>
      </cc:Work>
    </rdf:RDF>
  </metadata>
  <defs
     id="defs3394">
    <marker
       style="overflow:visible"
       id="Tail"
       refX="0"
       refY="0"
       orient="auto">
      <g
         style="fill:#e1ffff;fill-opacity:1;stroke:#e1ffff;stroke-opacity:1"
         transform="scale(-1.2,-1.2)"
         id="g5190">
        <path
           style="fill:#e1ffff;fill-opacity:1;fill-rule:evenodd;stroke:#e1ffff;stroke-width:0.80000001;stroke-linecap:round;stroke-opacity:1"
           d="M -3.8048674,-3.9585227 0.54352094,0"
           id="path5192" />
        <path
           style="fill:#e1ffff;fill-opacity:1;fill-rule:evenodd;stroke:#e1ffff;stroke-width:0.80000001;stroke-linecap:round;stroke-opacity:1"
           d="M -1.2866832,-3.9585227 3.0617053,0"
           id="path5194" />
        <path
           style="fill:#e1ffff;fill-opacity:1;fill-rule:evenodd;stroke:#e1ffff;stroke-width:0.80000001;stroke-linecap:round;stroke-opacity:1"
           d="M 1.3053582,-3.9585227 5.6537466,0"
           id="path5196" />
        <path
           style="fill:#e1ffff;fill-opacity:1;fill-rule:evenodd;stroke:#e1ffff;stroke-width:0.80000001;stroke-linecap:round;stroke-opacity:1"
           d="M -3.8048674,4.1775838 0.54352094,0.21974226"
           id="path5198" />
        <path
           style="fill:#e1ffff;fill-opacity:1;fill-rule:evenodd;stroke:#e1ffff;stroke-width:0.80000001;stroke-linecap:round;stroke-opacity:1"
           d="M -1.2866832,4.1775838 3.0617053,0.21974226"
           id="path5200" />
        <path
           style="fill:#e1ffff;fill-opacity:1;fill-rule:evenodd;stroke:#e1ffff;stroke-width:0.80000001;stroke-linecap:round;stroke-opacity:1"
           d="M 1.3053582,4.1775838 5.6537466,0.21974226"
           id="path5202" />
      </g>
    </marker>
    <marker
       style="overflow:visible"
       id="Arrow1Lstart"
       refX="0"
       refY="0"
       orient="auto">
      <path
         transform="matrix(0.8,0,0,0.8,10,0)"
         style="fill:#000000;fill-opacity:1;fill-rule:evenodd;stroke:#000000;stroke-width:1pt;stroke-opacity:1"
         d="M 0,0 5,-5 -12.5,0 5,5 0,0 Z"
         id="path5154" />
    </marker>
    <linearGradient
       osb:paint="solid"
       id="linearGradient4320">
      <stop
         id="stop4322"
         offset="0"
         style="stop-color:#000000;stop-opacity:1;" />
    </linearGradient>
    <linearGradient
       osb:paint="solid"
       id="linearGradient4314">
      <stop
         id="stop4316"
         offset="0"
         style="stop-color:#000000;stop-opacity:1;" />
    </linearGradient>
    <linearGradient
       osb:paint="solid"
       id="linearGradient4308">
      <stop
         id="stop4310"
         offset="0"
         style="stop-color:#edd695;stop-opacity:1;" />
    </linearGradient>
    <linearGradient
       gradientTransform="translate(0,-610)"
       gradientUnits="userSpaceOnUse"
       y2="-237.12164"
       x2="87.729256"
       y1="-237.12164"
       x1="-23.670273"
       id="linearGradient4312"
       xlink:href="#linearGradient4308" />
  </defs>
  <circle
     transform="scale(-1,-1)"
     r="55.137894"
     cy="-847.12164"
     cx="32.029491"
     id="path3402-4-8"
     style="opacity:1;fill:none;fill-opacity:1;fill-rule:evenodd;stroke:url(#linearGradient4312);stroke-width:2.74874997;stroke-linecap:butt;stroke-linejoin:miter;stroke-miterlimit:4;stroke-dasharray:none;stroke-opacity:0" />
  <g
     transform="translate(0,610)"
     id="layer1" />
  <g
     transform="translate(0,610)"
     id="layer2">
    <g
       transform="matrix(8.1690424,0,0,8.2158125,1389.2382,-3310.5325)"
       id="g5501">
      <circle
         style="opacity:1;fill:none;fill-opacity:1;fill-rule:evenodd;stroke:#005667;stroke-width:0.64800733;stroke-linecap:round;stroke-linejoin:round;stroke-miterlimit:4;stroke-dasharray:0.64800733, 3.88804395;stroke-dashoffset:3.96900034;stroke-opacity:1"
         id="path5430"
         cx="-109.03657"
         cy="389.60019"
         r="57.478497" />
      <path
         style="fill:#005667;fill-opacity:1;fill-rule:evenodd;stroke:none;stroke-width:1px;stroke-linecap:butt;stroke-linejoin:miter;stroke-opacity:1"
         d="m -143.62756,343.75779 c -0.17295,0.002 -0.3596,0.0275 -0.55892,0.082 -1.27559,0.34897 -6.99582,3.0176 -6.99582,3.0176 0,0 -1.63435,1.19062 -2.57111,0.3695 -0.93676,-0.82111 -1.435,-1.1085 -1.53466,-0.28738 0,0 0.49825,2.73019 1.75391,2.56598 1.25566,-0.16424 4.98276,-1.49856 4.98276,-1.49856 l -0.79724,4.393 c 0,0 0.67768,0.12313 1.11616,-0.63639 0.43849,-0.75953 2.27213,-4.98827 2.27213,-4.98827 0,0 3.72712,-1.97068 3.76697,-2.19648 0.0335,-0.19052 -0.50028,-0.83407 -1.43418,-0.8209 z m -8.1975,0.60028 c -0.38866,0.003 -0.6926,0.0872 -0.81218,0.30275 l 1.95322,1.31378 1.95327,-0.92374 c 0,0 -1.92834,-0.70434 -3.09431,-0.69279 z"
         id="path4561" />
    </g>
    <g
       transform="matrix(3.0936895,0,0,3.1114019,-103.94954,-715.52167)"
       id="g6066">
      <g
         id="g5497"
         transform="matrix(2.5864869,0,0,2.5864869,1164.7694,-1593.6178)">
        <path
           id="path4415-4"
           d="m -387.00917,645.72609 c -0.41172,0 -1.1782,0.19908 -2.48437,0.25586 -2.61233,0.11358 -2.6132,0.45329 -6.36133,1.13477 -3.74814,0.68148 -4.31641,2.04465 -4.31641,3.63476 0,1.14138 -1.09706,1.9144 -1.72461,2.26953 -0.22067,0.0423 -0.47145,0.10968 -0.77343,0.23047 -1.7037,0.68148 -2.38493,0.56674 -3.06641,1.92969 -0.68148,1.36296 -1.81836,1.36328 -1.81836,1.36328 0,0 -0.81253,-2.12311 -3.39453,0.61524 -0.10865,-0.36558 -4.58307,0.94216 -9.89453,13.01367 0,0 7.72373,-11.92564 9.54101,-12.72071 0.0781,-0.0341 0.12674,-0.067 0.17969,-0.0996 -0.0971,0.10777 -0.19107,0.20662 -0.29297,0.32812 0,0 1.24984,-0.4543 0.56836,1.47656 -0.68148,1.93085 1.47656,-0.56836 1.47656,-0.56836 0,0 -1.24894,2.15837 -0.9082,2.83985 0.33647,0.67293 -0.32526,2.00566 -0.88867,2.36719 -0.44751,0.25744 5.21945,-3.73692 6.79492,-4.41211 0.60017,-0.25722 0.90862,-0.41532 1.12109,-0.53516 1.08234,-0.0908 2.97386,-0.23124 4.33008,-0.14649 1.81728,0.11359 0.90821,2.04493 0.90821,2.04493 0,0 4.31656,2.49894 4.99804,2.1582 0.68148,-0.34074 -1.36301,-0.79554 -2.95312,-2.04492 -1.59012,-1.24937 2.49807,-1.36285 3.97461,-2.27149 1.47653,-0.90864 2.04548,-3.18134 0.34179,-3.29492 -1.7037,-0.11358 1.02135,-1.70269 1.81641,-2.61133 0.79506,-0.90864 1.13644,-1.36344 2.72656,-2.04492 1.59011,-0.68147 3.74833,-3.6352 2.15821,-2.72656 -1.59011,0.90864 -1.93224,0.22849 -1.70508,-1.24805 0.11357,-0.73826 0.0582,-0.9375 -0.35352,-0.9375 z m -24.1582,18.07032 c -10e-4,9e-4 -0.002,0.003 -0.004,0.004 l -3.08398,1.94336 c 0,0 0.56816,2.15972 -1.58985,3.06836 -2.15802,0.90863 -2.83989,0.90844 -5.79296,6.01953 -2.95307,5.11109 -3.63282,8.97266 -3.63282,8.97266 3.63455,-0.34074 3.5194,-4.77019 4.31446,-7.4961 0.79506,-2.72591 4.42968,-4.08984 4.42968,-4.08984 0,0 1.02258,-2.72524 2.83985,-3.97461 1.81728,-1.24938 0.56778,-2.27148 2.27148,-2.27148 1.7037,0 0.34074,-0.45494 0,-1.25 -0.18772,-0.43802 0.54281,-1.06384 1.24805,-1.55469 l -1,0.62891 z m 8.27148,-13.72657 c -4.20245,2.27159 -2.95383,3.6358 -0.45507,2.5 2.49876,-1.1358 0.45507,-2.5 0.45507,-2.5 z m 9.88086,2.72657 c 1.36296,0 -2.27227,2.04403 -4.20312,2.38476 -1.93086,0.34074 -2.38434,0.68286 -3.29297,1.70508 -0.5405,0.60806 -1.72018,1.18717 -2.62305,1.58008 -0.64373,-0.30724 -3.62789,-1.87372 -0.55664,-3.51172 1.53523,-0.81879 2.20962,-1.37011 2.36524,-1.68164 0.46881,0.0453 0.92773,0.15565 0.92773,0.43164 0,0.5679 6.01985,-0.90821 7.38281,-0.9082 z m 48.41211,1.24023 c 0,0 -0.16023,0.0799 -0.80273,0.16016 -0.64251,0.0803 -0.56383,1.60742 -1.44727,1.60742 -0.88344,0 -1.12366,0.4007 -2.24805,0.96289 -1.12438,0.5622 -2.32812,0.72265 -2.32812,0.72265 0,0 -2.08976,-0.88351 -3.45508,-0.64257 -1.36532,0.24094 -0.80163,1.28493 -1.8457,1.36523 -1.04407,0.0803 -1.36586,1.52734 -2.49024,1.52734 -1.12438,0 -1.68727,-0.56327 0.24024,-0.96484 1.92751,-0.40156 0.6429,-1.68538 -0.80274,-2.4082 -1.44563,-0.72282 -5.46053,-0.72336 -8.27148,-0.48242 -2.81095,0.24094 -5.2203,1.7678 -8.03125,3.69531 -2.81096,1.92751 1.20313,2.81055 1.20312,2.81054 2e-5,1e-5 0.32117,-1.4468 1.36524,0.4004 1.04406,1.8472 3.37436,0.5625 4.25781,-1.44532 0.88344,-2.00783 0.40218,-1.68664 1.125,-2.65039 0.72281,-0.96376 2.88977,-0.64197 1.84571,0.48242 -1.04408,1.12438 0.48277,2.24854 1.68749,2.08789 1.20469,-0.16061 1.20416,0.72244 -0.48243,0.80274 -1.68655,0.0803 -0.64171,0.96437 -1.60546,1.125 -0.96375,0.16062 -1.20497,1.84766 -4.57812,1.84766 -3.37315,0 -2.2496,-1.28547 -3.05274,-1.84766 -0.80312,-0.5622 -0.24131,1.68555 -1.20507,1.68555 -0.96376,0 -2.16789,0.7239 -3.53321,0.96484 -1.36532,0.24093 -1.28467,1.36531 -3.45312,2.00781 -2.16845,0.64251 -1.52673,1.04312 -0.40234,2.32813 1.12439,1.28501 -1.04288,1.28555 -4.41602,0.48242 -3.35907,-0.79978 -1.38571,5.15521 -1.36914,5.20508 0.0116,-0.0131 0.13878,0.0249 0.9668,0.49804 1.12438,0.64249 1.28569,0.32102 1.76757,0.0801 0.48188,-0.24094 1.20398,-0.72413 2.24805,-0.88476 1.04406,-0.16063 1.20578,-0.40023 0.96484,-1.12305 -0.24094,-0.72282 2.56892,-2.16874 3.05079,-2.57031 0.48188,-0.40156 2.64983,-0.4822 4.17578,-0.5625 1.52595,-0.0803 1.52601,2.00859 2.65039,2.41015 1.12438,0.40157 1.92929,1.44539 2.73242,2.08789 0.80311,0.6425 1.52571,-1.04358 0.0801,-2.16796 -1.44564,-1.12438 -2.8118,-2.33016 -3.05274,-2.97266 -0.24094,-0.64251 2.81094,0.88312 4.01563,1.44531 1.2047,0.56219 2.16788,5.05961 3.53319,5.38086 1.36533,0.32125 0.64407,-1.92663 0.80469,-2.9707 0.16063,-1.04407 1.44398,-0.0799 2.56836,1.20508 1.12439,1.285 1.76788,1.52539 4.3379,1.52539 2.57001,0 1.36445,3.21327 0.96289,4.41797 -0.40157,1.20469 -2.32813,0.32031 -2.32813,0.32031 l 0.0918,0.38867 c -0.3604,-0.23326 -0.72708,-0.37995 -1.0625,-0.33203 -1.02214,0.14602 -1.87286,0.37581 -2.16796,0.61719 0.20035,-0.29763 0.66666,-0.96346 1.25976,-1.24024 0.85185,-0.39753 -1.19367,-0.79611 -1.81836,-0.3418 -0.62469,0.45432 -1.19161,-1.41899 -4.82617,0.45508 -3.63455,1.87406 -7.38282,-3.23828 -7.38282,-3.23828 0,0 2.67001,-2.49805 -1.07812,-2.49804 -3.74813,0 -13.79989,2.84031 -14.14063,4.14648 -0.34074,1.30617 0.0556,2.38419 -1.76171,3.34961 -1.81728,0.96543 -2.9527,1.24861 -3.86133,7.72265 -0.90864,6.47405 3.12429,10.56432 5.62304,11.35938 0,0 0.62441,-0.11344 0.85157,-0.79492 0.22716,-0.68147 6.98545,-2.15834 8.06445,-1.36328 1.07901,0.79506 1.19067,2.32812 2.21289,2.32812 1.02222,0 1.81747,-0.73858 2.1582,-0.625 0.34074,0.11358 1.64828,0.39711 0.9668,1.64649 -0.68148,1.24938 -2.32841,2.49972 -1.47656,3.35156 0.85184,0.85185 3.29297,2.55546 3.29297,3.74805 0,1.19258 -0.85139,2.78157 0.56836,4.14453 1.41974,1.36295 -1.64634,2.38628 -1.70313,3.29492 -0.0568,0.90864 -0.28468,2.38466 1.02149,5.39453 1.30617,3.00986 1.58984,3.63523 1.58984,4.20312 0,0.56791 -0.28407,2.44065 1.5332,1.98633 1.81728,-0.45431 5.45254,-1.53186 6.41797,-2.04297 0.96543,-0.51111 2.8962,-2.67025 3.74805,-4.0332 0.85185,-1.36296 0.0568,-2.2147 1.47656,-3.00976 1.41975,-0.79505 3.29418,-1.30546 3.57813,-2.49805 0.28395,-1.19259 0.22717,-6.53112 0.73828,-7.32617 0.51111,-0.79506 3.69083,-4.31553 5.39453,-5.39453 1.7037,-1.07901 2.89559,-3.29495 3.23633,-4.03321 0.34074,-0.73827 1.41945,-4.7704 0.11328,-3.6914 -1.30617,1.07901 -4.25933,2.2716 -5.16797,0 -0.90864,-2.27159 -1.6456,-5.62098 -2.72461,-7.89258 -1.07901,-2.27159 -2.38597,-4.60007 -2.66992,-5.16797 -0.0265,-0.0529 -0.11238,-0.17067 -0.16016,-0.24805 l 1.19727,-0.67773 c 0,0 0.96233,1.60646 2.48828,3.93555 1.52595,2.32908 2.97313,8.35116 2.8125,9.15429 -0.16063,0.80313 2.72921,-0.64289 4.49609,-1.20508 1.76689,-0.56219 3.69523,-2.89116 5.06055,-5.38086 1.36532,-2.4897 -1.44531,-3.05078 -1.44531,-3.05078 l -2.16992,0.88282 c 0,0 -1.36414,-1.84609 -2.40821,-3.05079 -1.04407,-1.20469 -0.56258,-1.92773 0.80274,-1.92773 1.36532,0 2.89147,2.16851 3.93554,2.65039 1.04407,0.48188 2.81164,1.84563 3.77539,1.20313 0.96376,-0.64251 1.44398,0.24193 2.56836,2.33007 1.12438,2.08814 1.20492,1.44602 1.92774,1.20508 0.72281,-0.24094 0.80374,2.48889 1.125,5.6211 0.32125,3.13221 0.4007,5.8625 0.96289,5.46093 0.56219,-0.40156 1.68656,-6.98725 2.00781,-8.67383 0.32125,-1.68657 2.24906,-2.97101 2.57031,-3.5332 0.32125,-0.5622 1.125,6.66602 1.125,6.66602 0,0 0.32086,-3.37268 0.80273,-0.16016 0.48188,3.21252 -2.97111,18.23053 -0.16015,8.19141 2.81095,-10.03913 -0.56281,-23.12929 -1.125,-24.33399 -0.56219,-1.20469 -1.84719,-1.76749 -2.00781,-3.13281 -0.16063,-1.36532 -1.92687,-1.76718 -2.89063,-2.57031 -0.96375,-0.80313 -2.40929,-2.56946 -3.37304,-3.5332 -0.96376,-0.96378 -1.68743,-3.45398 -1.04493,-4.49805 0.64251,-1.04407 -2.16756,-2.3286 -4.97851,-2.16797 -2.81096,0.16062 -3.61382,-3.53429 -4.0957,-2.49024 -0.48188,1.04407 2.73101,2.32946 3.21289,3.2129 0.48187,0.88345 2.88961,5.54093 2.56836,4.89843 -0.32126,-0.64251 -4.4157,-3.69452 -5.86133,-5.30078 -1.44563,-1.60626 -5.62249,-2.64991 -7.14844,-2.81055 -1.52595,-0.16061 0.32033,0.24025 -1.6875,-1.76757 -2.00782,-2.00783 0.24156,-1.68555 1.125,-1.68555 0.88345,0 2.81055,-0.16016 2.81055,-0.16016 0,0 2.00866,-0.80375 3.05273,-1.125 1.04407,-0.32126 2.16797,3.05274 2.16797,3.05274 0,0 0.80251,-0.48227 0.88281,-1.20508 0.0803,-0.72282 -1.1246,-0.72421 -1.92773,-1.52734 -0.80313,-0.80313 0.0821,-1.20469 0.72461,-2.00782 0.6425,-0.80312 1.76562,-0.0801 1.76562,-0.0801 l -0.96289,-0.72266 z m -38.83398,6.19531 c -0.43214,-0.007 -0.93158,0.046 -1.51367,0.17383 0,0 0.56732,3.29522 1.70312,3.18164 1.1358,-0.11358 -1.59058,2.04297 -0.56836,2.04297 1.02222,0 4.99878,0.22819 3.97656,-1.13477 -0.89444,-1.19258 -0.5727,-4.21242 -3.59765,-4.26367 z m -2.4668,2.36328 c -0.42925,0.0153 -1.02127,0.19637 -1.66016,0.53711 0,0 0.79586,2.27145 1.93164,0.79492 0.70988,-0.92283 0.44394,-1.35754 -0.27148,-1.33203 z m -6.42969,0.19532 c 0,0 -0.45551,0.90985 0.45313,1.02343 0.90863,0.11358 -0.45313,-1.02343 -0.45313,-1.02343 z m 4.12305,0.85546 c -0.62292,-0.016 -1.96484,0.6211 -1.96484,0.6211 0,0 2.1579,0.4552 2.27148,-0.33985 0.0284,-0.19876 -0.099,-0.27592 -0.30664,-0.28125 z m -35.34961,28.53321 c -0.0673,-0.01 -0.13937,-0.009 -0.21484,0.004 -0.27868,0.0472 -0.61705,0.25983 -1.04297,0.70703 0,0 -2.15721,10.56206 3.4082,19.64844 5.56541,9.08638 10.90235,16.69727 10.90234,16.69727 0,0 7.83702,7.04088 9.6543,7.83594 1.81727,0.79506 -12.26571,-11.01557 -8.51758,-16.24024 3.74814,-5.22467 1.70313,-6.92969 1.70313,-6.92969 0,0 3.52167,-5.22496 -2.49805,-8.06445 -6.01973,-2.8395 -9.42746,-10.5619 -11.01758,-10.78906 -1.21122,-0.17304 -1.36705,-2.71992 -2.37695,-2.86914 z"
           style="fill:#005667;fill-opacity:1;fill-rule:evenodd;stroke:#510000;stroke-width:1px;stroke-linecap:butt;stroke-linejoin:miter;stroke-opacity:0" />
        <path
           id="path4415-6"
           d="m -344.5975,654.03556 c 0,0 -0.16024,0.0799 -0.80274,0.16016 -0.6425,0.0803 -0.56381,1.60742 -1.44726,1.60742 -0.88344,0 -1.12367,0.4007 -2.24805,0.96289 -1.12438,0.5622 -2.32813,0.72265 -2.32813,0.72265 0,0 -2.08974,-0.88351 -3.45507,-0.64257 -1.36532,0.24094 -0.80164,1.28493 -1.84571,1.36523 -1.04407,0.0803 -1.36585,1.52734 -2.49023,1.52734 -1.12439,0 -1.68728,-0.56327 0.24023,-0.96484 1.92751,-0.40156 0.6429,-1.68538 -0.80273,-2.4082 -1.44564,-0.72282 -5.46053,-0.72337 -8.27149,-0.48242 -2.46043,0.21089 -4.62802,1.42993 -7.01171,3.01757 l 0,3.43555 c 0.0443,0.011 0.18359,0.0527 0.18359,0.0527 2e-5,10e-6 0.32116,-1.4468 1.36523,0.40039 1.04406,1.8472 3.37437,0.56251 4.25782,-1.44531 0.88344,-2.00783 0.40218,-1.68664 1.125,-2.65039 0.72281,-0.96376 2.88977,-0.64197 1.8457,0.48242 -1.04408,1.12438 0.48278,2.24854 1.6875,2.08789 1.20469,-0.16061 1.20417,0.72244 -0.48242,0.80274 -1.68656,0.0803 -0.64171,0.96437 -1.60547,1.125 -0.96375,0.16062 -1.20498,1.84766 -4.57813,1.84765 -3.37315,0 -2.24959,-1.28546 -3.05273,-1.84765 -0.61417,-0.42993 -0.43567,0.77832 -0.74609,1.37305 l 0,6.79101 c 1.07883,0.31899 1.19368,2.0011 2.1914,2.35742 1.12438,0.40157 1.92929,1.44539 2.73242,2.08789 0.80311,0.6425 1.52569,-1.04358 0.0801,-2.16796 -1.44564,-1.12438 -2.81179,-2.33016 -3.05273,-2.97266 -0.24094,-0.64251 2.81093,0.88312 4.01562,1.44531 1.2047,0.56219 2.16789,5.05961 3.53321,5.38086 1.36533,0.32125 0.64406,-1.92663 0.80468,-2.9707 0.16063,-1.04407 1.44398,-0.0799 2.56836,1.20508 1.12438,1.285 1.76788,1.52539 4.33789,1.52539 2.57002,0 1.36446,3.21326 0.96289,4.41796 -0.40156,1.2047 -2.32812,0.32032 -2.32812,0.32032 l 0.0918,0.38867 c -0.36041,-0.23326 -0.72709,-0.37995 -1.0625,-0.33203 -1.02215,0.14602 -1.87287,0.37581 -2.16797,0.61719 0.20035,-0.29763 0.66666,-0.96346 1.25976,-1.24024 0.85185,-0.39753 -1.19367,-0.79611 -1.81836,-0.3418 -0.62469,0.45432 -1.19161,-1.41899 -4.82617,0.45508 -3.5491,1.83 -7.15225,-2.93782 -7.32226,-3.16601 l 0,30.8457 c 0.45828,0.50792 0.79101,1.01549 0.79101,1.45312 0,1.19259 -0.85139,2.78158 0.56836,4.14454 1.13973,1.09414 -0.59492,1.96746 -1.35937,2.74023 l 0,4.0918 c 0.15931,0.54671 0.37359,1.15658 0.67773,1.85742 1.30617,3.00986 1.58984,3.63523 1.58984,4.20312 0,0.56791 -0.28406,2.44065 1.53321,1.98633 1.81728,-0.45431 5.45254,-1.53186 6.41797,-2.04297 0.96543,-0.51111 2.89619,-2.67025 3.74804,-4.0332 0.85185,-1.36296 0.0568,-2.2147 1.47656,-3.00977 1.41974,-0.79504 3.29418,-1.30545 3.57813,-2.49804 0.28395,-1.19259 0.22717,-6.53112 0.73828,-7.32617 0.51111,-0.79506 3.69084,-4.31553 5.39453,-5.39453 1.7037,-1.07902 2.89559,-3.29495 3.23633,-4.03321 0.34074,-0.73827 1.41945,-4.7704 0.11328,-3.6914 -1.30616,1.07901 -4.25933,2.2716 -5.16797,0 -0.90863,-2.27159 -1.6456,-5.62098 -2.72461,-7.89258 -1.079,-2.27159 -2.38597,-4.60007 -2.66992,-5.16797 -0.0265,-0.0529 -0.11238,-0.17067 -0.16015,-0.24805 l 1.19726,-0.67773 c 0,0 0.96234,1.60645 2.48828,3.93554 1.52595,2.32908 2.97313,8.35117 2.8125,9.1543 -0.16062,0.80313 2.72921,-0.64289 4.4961,-1.20508 1.76688,-0.56219 3.69522,-2.89116 5.06054,-5.38086 1.36533,-2.4897 -1.44531,-3.05078 -1.44531,-3.05078 l -2.16992,0.88282 c 0,0 -1.36413,-1.84609 -2.4082,-3.05079 -1.04407,-1.20469 -0.56259,-1.92773 0.80273,-1.92773 1.36532,0 2.89148,2.16851 3.93555,2.65039 1.04407,0.48188 2.81163,1.84563 3.77539,1.20313 0.96375,-0.64252 1.44398,0.24193 2.56836,2.33007 1.12438,2.08814 1.20492,1.44602 1.92773,1.20508 0.72282,-0.24094 0.80375,2.48889 1.125,5.62109 0.32125,3.13221 0.4007,5.86251 0.96289,5.46094 0.56219,-0.40156 1.68655,-6.98725 2.00781,-8.67383 0.32125,-1.68657 2.24907,-2.97101 2.57032,-3.5332 0.32125,-0.5622 1.125,6.66602 1.125,6.66602 0,0 0.32085,-3.37268 0.80273,-0.16016 0.48188,3.21252 -2.97112,18.23053 -0.16016,8.19141 2.81095,-10.03913 -0.56281,-23.12929 -1.125,-24.33399 -0.56219,-1.20469 -1.84718,-1.76749 -2.00781,-3.13281 -0.16062,-1.36532 -1.92687,-1.76718 -2.89062,-2.57031 -0.96376,-0.80313 -2.40929,-2.56947 -3.37305,-3.53321 -0.96376,-0.96378 -1.68742,-3.45397 -1.04492,-4.49804 0.6425,-1.04407 -2.16756,-2.3286 -4.97852,-2.16797 -2.81095,0.16062 -3.61382,-3.53429 -4.0957,-2.49024 -0.48188,1.04407 2.73101,2.32945 3.21289,3.21289 0.48188,0.88345 2.88961,5.54094 2.56836,4.89844 -0.32125,-0.64251 -4.41569,-3.69452 -5.86133,-5.30078 -1.44563,-1.60626 -5.6225,-2.64991 -7.14844,-2.81055 -1.52595,-0.16061 0.32032,0.24025 -1.6875,-1.76757 -2.00783,-2.00783 0.24155,-1.68555 1.125,-1.68555 0.88344,0 2.81055,-0.16016 2.81055,-0.16016 0,0 2.00867,-0.80375 3.05274,-1.125 1.04407,-0.32126 2.16796,3.05274 2.16796,3.05274 0,0 0.80251,-0.48227 0.88282,-1.20508 0.0803,-0.72282 -1.12461,-0.72421 -1.92774,-1.52734 -0.80313,-0.80313 0.0821,-1.20469 0.72461,-2.00782 0.64251,-0.80312 1.76563,-0.0801 1.76563,-0.0801 l -0.96289,-0.72266 z m -30.46289,21.87305 0,2.31835 c 0.17439,-0.1684 1.87009,-1.85582 0,-2.31835 z"
           style="opacity:0.5;fill:#4995a2;fill-opacity:1;fill-rule:evenodd;stroke:#510000;stroke-width:1px;stroke-linecap:butt;stroke-linejoin:miter;stroke-opacity:0" />
        <path
           style="fill:none;fill-rule:evenodd;stroke:#002823;stroke-width:0.36250287;stroke-linecap:round;stroke-linejoin:round;stroke-miterlimit:4;stroke-dasharray:0.36250287, 1.08750859;stroke-dashoffset:0;stroke-opacity:1"
           d="m -379.8876,669.66408 c 0,0 2.39725,6.64901 11.26651,1.76499 13.66858,-7.52685 23.2841,-2.26915 29.74356,4.00439 6.45946,6.27355 10.81584,10.5449 10.81584,10.5449 l 0,0"
           id="path5592" />
        <path
           style="fill:none;fill-rule:evenodd;stroke:#002823;stroke-width:0.38662481;stroke-linecap:round;stroke-linejoin:round;stroke-miterlimit:4;stroke-dasharray:0.38662481, 1.15987442;stroke-dashoffset:0;stroke-opacity:1"
           d="m -419.97266,701.37087 c 0,0 45.15657,6.49409 34.73582,-18.27407 -10.42075,-24.76815 4.98384,-13.7433 4.98384,-13.7433 l -0.15103,0.15102"
           id="path5728" />
      </g>
      <path
         style="fill:none;fill-rule:evenodd;stroke:#002823;stroke-width:1;stroke-linecap:round;stroke-linejoin:round;stroke-miterlimit:4;stroke-dasharray:1, 3;stroke-dashoffset:0;stroke-opacity:1"
         d="m 180.72127,136.43698 c 0,0 30.46875,-10.54687 21.875,-16.40625 -8.59375,-5.85937 13.67187,-11.71875 22.26562,-10.54687 8.59375,1.17187 6.64063,1.17187 6.64063,1.17187"
         id="path5734" />
      <path
         style="fill:none;fill-rule:evenodd;stroke:#002823;stroke-width:1;stroke-linecap:round;stroke-linejoin:round;stroke-miterlimit:4;stroke-dasharray:1, 3;stroke-dashoffset:0;stroke-opacity:1"
         d="m 179.85505,137.46093 c 0,0 -20.89844,34.57031 34.96094,43.16407 38.70274,5.95427 34.76562,41.01562 12.5,64.45312 l -22.26563,23.4375"
         id="path5736" />
      <path
         style="fill:none;fill-rule:evenodd;stroke:#002823;stroke-width:0.9801563;stroke-linecap:round;stroke-linejoin:miter;stroke-miterlimit:4;stroke-dasharray:0.98015632, 2.94046898;stroke-dashoffset:0;stroke-opacity:1"
         d="m 181.16662,134.71358 c 0,0 -15.21875,-48.372323 -64.91645,15.69006 -30.954146,39.90117 -50.539312,10.72046 -29.864144,-11.86908 20.675184,-22.58954 21.440924,-21.8238 21.440924,-21.8238"
         id="path5742" />
      <circle
         style="opacity:1;fill:#ffffff;fill-opacity:1;fill-rule:evenodd;stroke:none;stroke-width:0.5285182;stroke-linecap:round;stroke-linejoin:round;stroke-miterlimit:4;stroke-dasharray:0.52851819, 3.17110913;stroke-dashoffset:3.96814322;stroke-opacity:1"
         id="path5912"
         cx="180.7818"
         cy="136.71214"
         r="3.6455176" />
      <path
         id="path4561-6"
         d="m 197.79637,128.60843 c -0.083,5.8e-4 -0.17253,0.0136 -0.26815,0.0393 -0.61199,0.16743 -3.35636,1.44775 -3.35636,1.44775 0,0 -0.7841,0.57121 -1.23352,0.17727 -0.44943,-0.39394 -0.68847,-0.53182 -0.73627,-0.13784 0,0 0.23903,1.30984 0.84147,1.23106 0.60241,-0.0787 2.39054,-0.71896 2.39054,-0.71896 l -0.38249,2.1076 c 0,0 0.32513,0.0591 0.53549,-0.3053 0.21038,-0.36439 1.09009,-2.39321 1.09009,-2.39321 0,0 1.78815,-0.94545 1.80726,-1.05379 0.0161,-0.0913 -0.24001,-0.40016 -0.68806,-0.39382 z m -3.93288,0.28798 c -0.18647,0.001 -0.33229,0.0418 -0.38965,0.14528 l 0.93708,0.63029 0.93711,-0.44317 c 0,0 -0.92514,-0.33791 -1.48454,-0.33238 z"
         style="fill:#ffffff;fill-opacity:1;fill-rule:evenodd;stroke:none;stroke-width:1px;stroke-linecap:butt;stroke-linejoin:miter;stroke-opacity:1" />
      <path
         id="path4561-6-5"
         d="m 233.31214,109.31188 c -0.083,5.8e-4 -0.17253,0.0136 -0.26815,0.0393 -0.61199,0.16743 -3.35636,1.44775 -3.35636,1.44775 0,0 -0.7841,0.57121 -1.23352,0.17727 -0.44943,-0.39394 -0.68847,-0.53182 -0.73627,-0.13784 0,0 0.23903,1.30984 0.84147,1.23106 0.60241,-0.0787 2.39054,-0.71896 2.39054,-0.71896 l -0.38249,2.1076 c 0,0 0.32513,0.0591 0.53549,-0.3053 0.21038,-0.36439 1.09009,-2.39321 1.09009,-2.39321 0,0 1.78815,-0.94545 1.80726,-1.05379 0.0161,-0.0913 -0.24001,-0.40016 -0.68806,-0.39382 z m -3.93288,0.28798 c -0.18647,10e-4 -0.33229,0.0418 -0.38965,0.14528 l 0.93708,0.63029 0.93711,-0.44317 c 0,0 -0.92514,-0.33791 -1.48454,-0.33238 z"
         style="fill:#ffffff;fill-opacity:1;fill-rule:evenodd;stroke:none;stroke-width:1px;stroke-linecap:butt;stroke-linejoin:miter;stroke-opacity:1" />
      <path
         id="path4561-6-9"
         d="m 242.29652,132.06578 c -0.083,5.8e-4 -0.17253,0.0136 -0.26815,0.0393 -0.61199,0.16743 -3.35636,1.44775 -3.35636,1.44775 0,0 -0.7841,0.57121 -1.23352,0.17727 -0.44943,-0.39394 -0.68847,-0.53182 -0.73627,-0.13784 0,0 0.23903,1.30984 0.84147,1.23106 0.60241,-0.0787 2.39054,-0.71896 2.39054,-0.71896 l -0.38249,2.1076 c 0,0 0.32513,0.0591 0.53549,-0.3053 0.21038,-0.36439 1.09009,-2.39321 1.09009,-2.39321 0,0 1.78815,-0.94545 1.80726,-1.05379 0.0161,-0.0913 -0.24001,-0.40016 -0.68806,-0.39382 z m -3.93288,0.28798 c -0.18647,0.001 -0.33229,0.0418 -0.38965,0.14528 l 0.93708,0.63029 0.93711,-0.44317 c 0,0 -0.92514,-0.33791 -1.48454,-0.33238 z"
         style="fill:#ffffff;fill-opacity:1;fill-rule:evenodd;stroke:none;stroke-width:1px;stroke-linecap:butt;stroke-linejoin:miter;stroke-opacity:1" />
      <path
         id="path4561-6-2"
         d="m 317.19886,180.11266 c -0.083,5.8e-4 -0.17253,0.0136 -0.26815,0.0393 -0.61199,0.16743 -3.35636,1.44775 -3.35636,1.44775 0,0 -0.7841,0.57121 -1.23352,0.17727 -0.44943,-0.39394 -0.68847,-0.53182 -0.73627,-0.13784 0,0 0.23903,1.30984 0.84147,1.23106 0.60241,-0.0787 2.39054,-0.71896 2.39054,-0.71896 l -0.38249,2.1076 c 0,0 0.32513,0.0591 0.53549,-0.3053 0.21038,-0.36439 1.09009,-2.39321 1.09009,-2.39321 0,0 1.78815,-0.94545 1.80726,-1.05379 0.0161,-0.0913 -0.24001,-0.40016 -0.68806,-0.39382 z m -3.93288,0.28798 c -0.18647,10e-4 -0.33229,0.0418 -0.38965,0.14528 l 0.93708,0.63029 0.93711,-0.44317 c 0,0 -0.92514,-0.33791 -1.48454,-0.33238 z"
         style="fill:#ffffff;fill-opacity:1;fill-rule:evenodd;stroke:none;stroke-width:1px;stroke-linecap:butt;stroke-linejoin:miter;stroke-opacity:1" />
      <path
         id="path4561-6-4"
         d="m 217.76126,179.24579 c -0.083,5.8e-4 -0.17253,0.0136 -0.26815,0.0393 -0.61199,0.16743 -3.35636,1.44775 -3.35636,1.44775 0,0 -0.7841,0.57121 -1.23352,0.17727 -0.44943,-0.39394 -0.68847,-0.53182 -0.73627,-0.13784 0,0 0.23903,1.30984 0.84147,1.23106 0.60241,-0.0787 2.39054,-0.71896 2.39054,-0.71896 l -0.38249,2.1076 c 0,0 0.32513,0.0591 0.53549,-0.3053 0.21038,-0.36439 1.09009,-2.39321 1.09009,-2.39321 0,0 1.78815,-0.94545 1.80726,-1.05379 0.0161,-0.0913 -0.24001,-0.40016 -0.68806,-0.39382 z m -3.93288,0.28798 c -0.18647,0.001 -0.33229,0.0418 -0.38965,0.14528 l 0.93708,0.63029 0.93711,-0.44317 c 0,0 -0.92514,-0.33791 -1.48454,-0.33238 z"
         style="fill:#ffffff;fill-opacity:1;fill-rule:evenodd;stroke:none;stroke-width:1px;stroke-linecap:butt;stroke-linejoin:miter;stroke-opacity:1" />
      <path
         id="path4561-6-1"
         d="m 198.91443,269.37046 c 0.083,5.8e-4 0.17253,0.0136 0.26815,0.0393 0.61199,0.16743 3.35636,1.44775 3.35636,1.44775 0,0 0.7841,0.57121 1.23352,0.17727 0.44943,-0.39394 0.68847,-0.53182 0.73627,-0.13784 0,0 -0.23903,1.30984 -0.84147,1.23106 -0.60241,-0.0787 -2.39054,-0.71896 -2.39054,-0.71896 l 0.38249,2.1076 c 0,0 -0.32513,0.0591 -0.53549,-0.3053 -0.21038,-0.36439 -1.09009,-2.39321 -1.09009,-2.39321 0,0 -1.78815,-0.94545 -1.80726,-1.05379 -0.0161,-0.0913 0.24001,-0.40016 0.68806,-0.39382 z m 3.93288,0.28798 c 0.18647,0.001 0.33229,0.0418 0.38965,0.14528 l -0.93708,0.63029 -0.93711,-0.44317 c 0,0 0.92514,-0.33791 1.48454,-0.33238 z"
         style="fill:#ffffff;fill-opacity:1;fill-rule:evenodd;stroke:none;stroke-width:1px;stroke-linecap:butt;stroke-linejoin:miter;stroke-opacity:1" />
      <path
         id="path4561-6-6"
         d="m 71.020051,218.19191 c 0.083,5.8e-4 0.17253,0.0136 0.26815,0.0393 0.61199,0.16743 3.35636,1.44775 3.35636,1.44775 0,0 0.7841,0.57121 1.23352,0.17727 0.44943,-0.39394 0.68847,-0.53182 0.73627,-0.13784 0,0 -0.23903,1.30984 -0.84147,1.23106 -0.60241,-0.0787 -2.39054,-0.71896 -2.39054,-0.71896 l 0.38249,2.1076 c 0,0 -0.32513,0.0591 -0.53549,-0.3053 -0.21038,-0.36439 -1.09009,-2.39321 -1.09009,-2.39321 0,0 -1.78815,-0.94545 -1.80726,-1.05379 -0.0161,-0.0913 0.24001,-0.40016 0.68806,-0.39382 z m 3.93288,0.28798 c 0.18647,10e-4 0.33229,0.0418 0.38965,0.14528 l -0.93708,0.63029 -0.93711,-0.44317 c 0,0 0.92514,-0.33791 1.48454,-0.33238 z"
         style="fill:#ffffff;fill-opacity:1;fill-rule:evenodd;stroke:none;stroke-width:1px;stroke-linecap:butt;stroke-linejoin:miter;stroke-opacity:1" />
      <path
         id="path4561-6-63"
         d="m 155.40331,211.83899 c 0.083,5.8e-4 0.17253,0.0136 0.26815,0.0393 0.61199,0.16743 3.35636,1.44775 3.35636,1.44775 0,0 0.7841,0.57121 1.23352,0.17727 0.44943,-0.39394 0.68847,-0.53182 0.73627,-0.13784 0,0 -0.23903,1.30984 -0.84147,1.23106 -0.60241,-0.0787 -2.39054,-0.71896 -2.39054,-0.71896 l 0.38249,2.1076 c 0,0 -0.32513,0.0591 -0.53549,-0.3053 -0.21038,-0.36439 -1.09009,-2.39321 -1.09009,-2.39321 0,0 -1.78815,-0.94545 -1.80726,-1.05379 -0.0161,-0.0913 0.24001,-0.40016 0.68806,-0.39382 z m 3.93288,0.28798 c 0.18647,0.001 0.33229,0.0418 0.38965,0.14528 l -0.93708,0.63029 -0.93711,-0.44317 c 0,0 0.92514,-0.33791 1.48454,-0.33238 z"
         style="fill:#ffffff;fill-opacity:1;fill-rule:evenodd;stroke:none;stroke-width:1px;stroke-linecap:butt;stroke-linejoin:miter;stroke-opacity:1" />
      <path
         id="path4561-6-93"
         d="m 165.32068,129.91734 c 0.083,5.8e-4 0.17253,0.0136 0.26815,0.0393 0.61199,0.16743 3.35636,1.44775 3.35636,1.44775 0,0 0.7841,0.57121 1.23352,0.17727 0.44943,-0.39394 0.68847,-0.53182 0.73627,-0.13784 0,0 -0.23903,1.30984 -0.84147,1.23106 -0.60241,-0.0787 -2.39054,-0.71896 -2.39054,-0.71896 l 0.38249,2.1076 c 0,0 -0.32513,0.0591 -0.53549,-0.3053 -0.21038,-0.36439 -1.09009,-2.39321 -1.09009,-2.39321 0,0 -1.78815,-0.94545 -1.80726,-1.05379 -0.0161,-0.0913 0.24001,-0.40016 0.68806,-0.39382 z m 3.93288,0.28798 c 0.18647,0.001 0.33229,0.0418 0.38965,0.14528 l -0.93708,0.63029 -0.93711,-0.44317 c 0,0 0.92514,-0.33791 1.48454,-0.33238 z"
         style="fill:#005667;fill-opacity:1;fill-rule:evenodd;stroke:none;stroke-width:1px;stroke-linecap:butt;stroke-linejoin:miter;stroke-opacity:1" />
      <path
         id="path4561-6-93-4"
         d="m 151.6664,116.83344 c 0.083,5.8e-4 0.17253,0.0136 0.26815,0.0393 0.61199,0.16743 3.35636,1.44775 3.35636,1.44775 0,0 0.7841,0.57121 1.23352,0.17727 0.44943,-0.39394 0.68847,-0.53182 0.73627,-0.13784 0,0 -0.23903,1.30984 -0.84147,1.23106 -0.60241,-0.0787 -2.39054,-0.71896 -2.39054,-0.71896 l 0.38249,2.1076 c 0,0 -0.32513,0.0591 -0.53549,-0.3053 -0.21038,-0.36439 -1.09009,-2.39321 -1.09009,-2.39321 0,0 -1.78815,-0.94545 -1.80726,-1.05379 -0.0161,-0.0913 0.24001,-0.40016 0.68806,-0.39382 z m 3.93288,0.28798 c 0.18647,0.001 0.33229,0.0418 0.38965,0.14528 l -0.93708,0.63029 -0.93711,-0.44317 c 0,0 0.92514,-0.33791 1.48454,-0.33238 z"
         style="fill:#005667;fill-opacity:1;fill-rule:evenodd;stroke:none;stroke-width:1px;stroke-linecap:butt;stroke-linejoin:miter;stroke-opacity:1" />
      <path
         id="path4561-6-93-8"
         d="m 110.65943,113.64505 c -0.083,5.8e-4 -0.17253,0.0136 -0.26815,0.0393 -0.61199,0.16743 -3.35636,1.44775 -3.35636,1.44775 0,0 -0.7841,0.57121 -1.23352,0.17727 -0.44943,-0.39394 -0.68847,-0.53182 -0.73627,-0.13784 0,0 0.23903,1.30984 0.84147,1.23106 0.60241,-0.0787 2.39054,-0.71896 2.39054,-0.71896 l -0.38249,2.1076 c 0,0 0.32513,0.0591 0.53549,-0.3053 0.21038,-0.36439 1.09009,-2.39321 1.09009,-2.39321 0,0 1.78815,-0.94545 1.80726,-1.05379 0.0161,-0.0913 -0.24001,-0.40016 -0.68806,-0.39382 z m -3.93288,0.28798 c -0.18647,0.001 -0.33229,0.0418 -0.38965,0.14528 l 0.93708,0.63029 0.93711,-0.44317 c 0,0 -0.92514,-0.33791 -1.48454,-0.33238 z"
         style="fill:#ffffff;fill-opacity:1;fill-rule:evenodd;stroke:none;stroke-width:1px;stroke-linecap:butt;stroke-linejoin:miter;stroke-opacity:1" />
      <path
         id="path4561-6-93-43"
         d="m 178.72228,143.29625 c -0.083,5.8e-4 -0.17253,0.0136 -0.26815,0.0393 -0.61199,0.16743 -3.35636,1.44775 -3.35636,1.44775 0,0 -0.7841,0.57121 -1.23352,0.17727 -0.44943,-0.39394 -0.68847,-0.53182 -0.73627,-0.13784 0,0 0.23903,1.30984 0.84147,1.23106 0.60241,-0.0787 2.39054,-0.71896 2.39054,-0.71896 l -0.38249,2.1076 c 0,0 0.32513,0.0591 0.53549,-0.3053 0.21038,-0.36439 1.09009,-2.39321 1.09009,-2.39321 0,0 1.78815,-0.94545 1.80726,-1.05379 0.0161,-0.0913 -0.24001,-0.40016 -0.68806,-0.39382 z m -3.93288,0.28798 c -0.18647,0.001 -0.33229,0.0418 -0.38965,0.14528 l 0.93708,0.63029 0.93711,-0.44317 c 0,0 -0.92514,-0.33791 -1.48454,-0.33238 z"
         style="fill:#ffffff;fill-opacity:1;fill-rule:evenodd;stroke:none;stroke-width:1px;stroke-linecap:butt;stroke-linejoin:miter;stroke-opacity:1" />
    </g>
  </g>
</svg>
